<svg width="22" height="22" viewBox="0 0 22 22" fill="none" xmlns="http://www.w3.org/2000/svg">
<path d="M10 4H17M9 9L13.5 13.5M4 10V17" stroke="#1F66EA" stroke-width="1.25" stroke-linecap="round" stroke-linejoin="round"/>
<path d="M5.444 9.888C7.89835 9.888 9.888 7.89835 9.888 5.444C9.888 2.98965 7.89835 1 5.444 1C2.98965 1 1 2.98965 1 5.444C1 7.89835 2.98965 9.888 5.444 9.888Z" stroke="#1F66EA" stroke-width="1.25" stroke-linecap="round" stroke-linejoin="round"/>
<path d="M4 21C5.10457 21 6 20.1046 6 19C6 17.8954 5.10457 17 4 17C2.89543 17 2 17.8954 2 19C2 20.1046 2.89543 21 4 21Z" stroke="#1F66EA" stroke-width="1.25" stroke-linecap="round" stroke-linejoin="round"/>
<path d="M15 17C16.1046 17 17 16.1046 17 15C17 13.8954 16.1046 13 15 13C13.8954 13 13 13.8954 13 15C13 16.1046 13.8954 17 15 17Z" stroke="#1F66EA" stroke-width="1.25" stroke-linecap="round" stroke-linejoin="round"/>
<path d="M19 6C20.1046 6 21 5.10457 21 4C21 2.89543 20.1046 2 19 2C17.8954 2 17 2.89543 17 4C17 5.10457 17.8954 6 19 6Z" stroke="#1F66EA" stroke-width="1.25" stroke-linecap="round" stroke-linejoin="round"/>
</svg>
