<svg width="37" height="36" viewBox="0 0 37 36" fill="none" xmlns="http://www.w3.org/2000/svg">
<g filter="url(#filter0_d_2560_263)">
<path d="M17.6993 4.3931C17.7577 4.27507 17.848 4.17573 17.9598 4.10627C18.0717 4.03681 18.2008 4 18.3325 4C18.4642 4 18.5932 4.03681 18.7051 4.10627C18.817 4.17573 18.9072 4.27507 18.9657 4.3931L22.0449 10.6302C22.2478 11.0408 22.5472 11.3959 22.9175 11.6653C23.2879 11.9346 23.718 12.11 24.1711 12.1765L31.0574 13.1843C31.1879 13.2032 31.3104 13.2582 31.4113 13.3432C31.5121 13.4281 31.5872 13.5396 31.6279 13.665C31.6687 13.7904 31.6736 13.9246 31.642 14.0527C31.6104 14.1807 31.5437 14.2973 31.4493 14.3893L26.4692 19.2388C26.1407 19.5589 25.895 19.9539 25.7531 20.39C25.6112 20.8261 25.5775 21.2902 25.6547 21.7422L26.8304 28.5939C26.8534 28.7243 26.8394 28.8585 26.7898 28.9813C26.7401 29.1041 26.657 29.2105 26.5499 29.2884C26.4427 29.3662 26.3158 29.4123 26.1837 29.4215C26.0516 29.4307 25.9196 29.4026 25.8027 29.3403L19.6468 26.1038C19.2412 25.8908 18.7899 25.7795 18.3318 25.7795C17.8737 25.7795 17.4224 25.8908 17.0168 26.1038L10.8623 29.3403C10.7454 29.4022 10.6136 29.43 10.4817 29.4207C10.3498 29.4113 10.2232 29.3651 10.1162 29.2873C10.0093 29.2095 9.92631 29.1033 9.87675 28.9807C9.8272 28.8581 9.81304 28.7241 9.83589 28.5939L11.0103 21.7435C11.0878 21.2913 11.0542 20.827 10.9123 20.3906C10.7704 19.9542 10.5245 19.5589 10.1958 19.2388L5.21568 14.3907C5.1205 14.2987 5.05304 14.1819 5.02101 14.0535C4.98898 13.9251 4.99365 13.7903 5.0345 13.6644C5.07534 13.5386 5.15072 13.4267 5.25204 13.3416C5.35336 13.2564 5.47655 13.2015 5.60758 13.183L12.4926 12.1765C12.9461 12.1105 13.3769 11.9353 13.7477 11.666C14.1185 11.3966 14.4184 11.0412 14.6214 10.6302L17.6993 4.3931Z" fill="#FFB900" stroke="#FFB900" stroke-width="1.99951" stroke-linecap="round" stroke-linejoin="round"/>
</g>
<defs>
<filter id="filter0_d_2560_263" x="-1.66357" y="-1.66602" width="39.9922" height="39.9922" filterUnits="userSpaceOnUse" color-interpolation-filters="sRGB">
<feFlood flood-opacity="0" result="BackgroundImageFix"/>
<feColorMatrix in="SourceAlpha" type="matrix" values="0 0 0 0 0 0 0 0 0 0 0 0 0 0 0 0 0 0 127 0" result="hardAlpha"/>
<feOffset dy="1"/>
<feGaussianBlur stdDeviation="2"/>
<feColorMatrix type="matrix" values="0 0 0 0 0 0 0 0 0 0 0 0 0 0 0 0 0 0 0.15 0"/>
<feBlend mode="normal" in2="BackgroundImageFix" result="effect1_dropShadow_2560_263"/>
<feBlend mode="normal" in="SourceGraphic" in2="effect1_dropShadow_2560_263" result="shape"/>
</filter>
</defs>
</svg>
